# xmcd
#
# Track frame offsets: 
#        150
#        23168
#        50552
#        72210
#        117742
#        140220
#        165567
#        190771
#        215926
#        235195
#        254890
#
# Disc length: 3882 seconds
#
# Revision: 1
# Processed by: cddbd v1.5.2PL0 Copyright (c) Steve Scherf et al.
# Submitted via: ExactAudioCopy v0.99pb5
#
DISCID=b20f280b
DTITLE=Fabrizio Bosso and Flavio Boltro Quintet - Trumpet Legacy
DYEAR=2005
DGENRE=Jazz
TTITLE0=Moontrane
TTITLE1=Woman's Glance
TTITLE2=Daahoud
TTITLE3=Little Sunflower
TTITLE4=Delfeayo's Dilemma
TTITLE5=Everything Happens To Me
TTITLE6=Big Butter And Eggman
TTITLE7=Whoopin' Blues
TTITLE8=Lotus Blossom
TTITLE9=First Smile - Jazz A Doc
TTITLE10=Eighty One
EXTD=YEAR: 2005
EXTT0=
EXTT1=
EXTT2=
EXTT3=
EXTT4=
EXTT5=
EXTT6=
EXTT7=
EXTT8=
EXTT9=
EXTT10=
PLAYORDER=
